<svg width="322" height="67" viewBox="0 0 322 67" fill="none" xmlns="http://www.w3.org/2000/svg">
<g filter="url(#filter0_d_143_65)">
<mask id="path-1-outside-1_143_65" maskUnits="userSpaceOnUse" x="19" y="19" width="284" height="29" fill="black">
<rect fill="white" x="19" y="19" width="284" height="29"/>
<path d="M40.1456 23.1818V45H36.1612L26.669 31.2678H26.5092V45H21.8963V23.1818H25.9446L35.3622 36.9034H35.554V23.1818H40.1456ZM58.379 45.3196C56.6958 45.3196 55.2469 44.9787 54.0324 44.2969C52.825 43.608 51.8946 42.6349 51.2412 41.3778C50.5878 40.1136 50.2611 38.6186 50.2611 36.8928C50.2611 35.2095 50.5878 33.7322 51.2412 32.4609C51.8946 31.1896 52.8144 30.1989 54.0005 29.4886C55.1936 28.7784 56.5928 28.4233 58.1979 28.4233C59.2774 28.4233 60.2824 28.5973 61.2128 28.9453C62.1503 29.2862 62.9671 29.8011 63.6631 30.4901C64.3662 31.179 64.9131 32.0455 65.3037 33.0895C65.6944 34.1264 65.8897 35.3409 65.8897 36.733V37.9794H52.0722V35.1669H61.6176C61.6176 34.5135 61.4756 33.9347 61.1915 33.4304C60.9074 32.9261 60.5132 32.532 60.009 32.2479C59.5118 31.9567 58.933 31.8111 58.2725 31.8111C57.5836 31.8111 56.9728 31.9709 56.4401 32.2905C55.9145 32.603 55.5026 33.0256 55.2043 33.5582C54.906 34.0838 54.7533 34.6697 54.7462 35.3161V37.9901C54.7462 38.7997 54.8953 39.4993 55.1936 40.0888C55.499 40.6783 55.9287 41.1328 56.4827 41.4524C57.0367 41.772 57.6936 41.9318 58.4536 41.9318C58.9578 41.9318 59.4195 41.8608 59.8385 41.7188C60.2576 41.5767 60.6162 41.3636 60.9145 41.0795C61.2128 40.7955 61.4401 40.4474 61.5963 40.0355L65.7938 40.3125C65.5807 41.321 65.1439 42.2017 64.4834 42.9545C63.83 43.7003 62.9848 44.2827 61.9479 44.7017C60.9181 45.1136 59.7284 45.3196 58.379 45.3196ZM86.3949 38.0327V28.6364H90.9333V45H86.576V42.0277H86.4056C86.0363 42.9865 85.4219 43.7571 84.5625 44.3395C83.7103 44.9219 82.6698 45.2131 81.4411 45.2131C80.3473 45.2131 79.385 44.9645 78.554 44.4673C77.723 43.9702 77.0732 43.2635 76.6044 42.3473C76.1428 41.4311 75.9084 40.3338 75.9013 39.0554V28.6364H80.4397V38.2457C80.4468 39.2116 80.706 39.9751 81.2174 40.5362C81.7287 41.0973 82.4141 41.3778 83.2735 41.3778C83.8203 41.3778 84.3317 41.2536 84.8076 41.005C85.2834 40.7493 85.6669 40.3729 85.9581 39.8757C86.2564 39.3786 86.402 38.7642 86.3949 38.0327ZM101.613 45V28.6364H106.013V31.4915H106.184C106.482 30.4759 106.983 29.7088 107.686 29.1903C108.389 28.6648 109.199 28.402 110.115 28.402C110.342 28.402 110.587 28.4162 110.85 28.4446C111.113 28.473 111.344 28.5121 111.542 28.5618V32.5888C111.329 32.5249 111.035 32.468 110.658 32.4183C110.282 32.3686 109.937 32.3438 109.625 32.3438C108.957 32.3438 108.361 32.4893 107.835 32.7805C107.317 33.0646 106.905 33.4624 106.599 33.9737C106.301 34.4851 106.152 35.0746 106.152 35.7422V45H101.613ZM127.571 45.3196C125.916 45.3196 124.485 44.968 123.277 44.2649C122.077 43.5547 121.15 42.5675 120.497 41.3033C119.843 40.032 119.517 38.5582 119.517 36.8821C119.517 35.1918 119.843 33.7145 120.497 32.4503C121.15 31.179 122.077 30.1918 123.277 29.4886C124.485 28.7784 125.916 28.4233 127.571 28.4233C129.225 28.4233 130.653 28.7784 131.853 29.4886C133.061 30.1918 133.991 31.179 134.644 32.4503C135.298 33.7145 135.625 35.1918 135.625 36.8821C135.625 38.5582 135.298 40.032 134.644 41.3033C133.991 42.5675 133.061 43.5547 131.853 44.2649C130.653 44.968 129.225 45.3196 127.571 45.3196ZM127.592 41.804C128.345 41.804 128.973 41.5909 129.478 41.1648C129.982 40.7315 130.362 40.142 130.617 39.3963C130.88 38.6506 131.012 37.8018 131.012 36.8501C131.012 35.8984 130.88 35.0497 130.617 34.304C130.362 33.5582 129.982 32.9687 129.478 32.5355C128.973 32.1023 128.345 31.8857 127.592 31.8857C126.832 31.8857 126.193 32.1023 125.674 32.5355C125.163 32.9687 124.776 33.5582 124.513 34.304C124.257 35.0497 124.13 35.8984 124.13 36.8501C124.13 37.8018 124.257 38.6506 124.513 39.3963C124.776 40.142 125.163 40.7315 125.674 41.1648C126.193 41.5909 126.832 41.804 127.592 41.804ZM158.873 26.9851V23.1818H176.792V26.9851H170.113V45H165.553V26.9851H158.873ZM195.38 34.2401V37.8409H185.43V34.2401H195.38ZM219.912 33.3026L215.757 33.5582C215.686 33.2031 215.534 32.8835 215.299 32.5994C215.065 32.3082 214.756 32.0774 214.372 31.907C213.996 31.7294 213.545 31.6406 213.019 31.6406C212.316 31.6406 211.723 31.7898 211.24 32.0881C210.757 32.3793 210.516 32.7699 210.516 33.2599C210.516 33.6506 210.672 33.9808 210.985 34.2507C211.297 34.5206 211.833 34.7372 212.593 34.9006L215.555 35.4972C217.146 35.8239 218.332 36.3494 219.113 37.0739C219.894 37.7983 220.285 38.75 220.285 39.929C220.285 41.0014 219.969 41.9425 219.337 42.7521C218.712 43.5618 217.852 44.1939 216.759 44.6484C215.672 45.0959 214.418 45.3196 212.998 45.3196C210.832 45.3196 209.106 44.8686 207.82 43.9666C206.542 43.0575 205.793 41.8217 205.573 40.2592L210.036 40.0249C210.171 40.6854 210.498 41.1896 211.016 41.5376C211.535 41.8786 212.199 42.049 213.009 42.049C213.804 42.049 214.443 41.8963 214.926 41.5909C215.416 41.2784 215.665 40.8771 215.672 40.3871C215.665 39.9751 215.491 39.6378 215.15 39.375C214.809 39.1051 214.284 38.8991 213.573 38.7571L210.739 38.1925C209.141 37.8729 207.952 37.3189 207.171 36.5305C206.396 35.7422 206.009 34.7372 206.009 33.5156C206.009 32.4645 206.293 31.5589 206.862 30.799C207.437 30.0391 208.243 29.4531 209.28 29.0412C210.324 28.6293 211.546 28.4233 212.945 28.4233C215.012 28.4233 216.638 28.8601 217.824 29.7337C219.017 30.6072 219.713 31.7969 219.912 33.3026ZM234.731 35.5398V45H230.193V23.1818H234.603V31.5234H234.795C235.164 30.5575 235.761 29.8011 236.585 29.2543C237.409 28.7003 238.442 28.4233 239.685 28.4233C240.821 28.4233 241.812 28.6719 242.657 29.169C243.509 29.6591 244.17 30.3658 244.639 31.2891C245.115 32.2053 245.349 33.3026 245.342 34.581V45H240.804V35.3906C240.811 34.3821 240.555 33.5973 240.036 33.0362C239.525 32.4751 238.808 32.1946 237.884 32.1946C237.267 32.1946 236.72 32.326 236.244 32.5888C235.775 32.8516 235.406 33.2351 235.136 33.7393C234.873 34.2365 234.738 34.8366 234.731 35.5398ZM255.963 45V28.6364H260.502V45H255.963ZM258.243 26.527C257.569 26.527 256.99 26.3033 256.507 25.8558C256.031 25.4013 255.793 24.858 255.793 24.2259C255.793 23.6009 256.031 23.0646 256.507 22.6172C256.99 22.1626 257.569 21.9354 258.243 21.9354C258.918 21.9354 259.493 22.1626 259.969 22.6172C260.452 23.0646 260.694 23.6009 260.694 24.2259C260.694 24.858 260.452 25.4013 259.969 25.8558C259.493 26.3033 258.918 26.527 258.243 26.527ZM271.187 45V28.6364H275.587V31.4915H275.758C276.056 30.4759 276.557 29.7088 277.26 29.1903C277.963 28.6648 278.772 28.402 279.689 28.402C279.916 28.402 280.161 28.4162 280.424 28.4446C280.687 28.473 280.917 28.5121 281.116 28.5618V32.5888C280.903 32.5249 280.608 32.468 280.232 32.4183C279.856 32.3686 279.511 32.3438 279.199 32.3438C278.531 32.3438 277.934 32.4893 277.409 32.7805C276.89 33.0646 276.478 33.4624 276.173 33.9737C275.875 34.4851 275.726 35.0746 275.726 35.7422V45H271.187ZM300.037 28.6364V32.0455H290.182V28.6364H300.037ZM292.42 24.7159H296.958V39.9716C296.958 40.3906 297.022 40.7173 297.15 40.9517C297.278 41.179 297.455 41.3388 297.682 41.4311C297.917 41.5234 298.187 41.5696 298.492 41.5696C298.705 41.5696 298.918 41.5518 299.131 41.5163C299.344 41.4737 299.508 41.4418 299.621 41.4205L300.335 44.7976C300.108 44.8686 299.788 44.9503 299.376 45.0426C298.964 45.142 298.464 45.2024 297.874 45.2237C296.78 45.2663 295.822 45.1207 294.998 44.7869C294.181 44.4531 293.545 43.9347 293.091 43.2315C292.636 42.5284 292.413 41.6406 292.42 40.5682V24.7159Z"/>
</mask>
<path d="M40.1456 23.1818V45H36.1612L26.669 31.2678H26.5092V45H21.8963V23.1818H25.9446L35.3622 36.9034H35.554V23.1818H40.1456ZM58.379 45.3196C56.6958 45.3196 55.2469 44.9787 54.0324 44.2969C52.825 43.608 51.8946 42.6349 51.2412 41.3778C50.5878 40.1136 50.2611 38.6186 50.2611 36.8928C50.2611 35.2095 50.5878 33.7322 51.2412 32.4609C51.8946 31.1896 52.8144 30.1989 54.0005 29.4886C55.1936 28.7784 56.5928 28.4233 58.1979 28.4233C59.2774 28.4233 60.2824 28.5973 61.2128 28.9453C62.1503 29.2862 62.9671 29.8011 63.6631 30.4901C64.3662 31.179 64.9131 32.0455 65.3037 33.0895C65.6944 34.1264 65.8897 35.3409 65.8897 36.733V37.9794H52.0722V35.1669H61.6176C61.6176 34.5135 61.4756 33.9347 61.1915 33.4304C60.9074 32.9261 60.5132 32.532 60.009 32.2479C59.5118 31.9567 58.933 31.8111 58.2725 31.8111C57.5836 31.8111 56.9728 31.9709 56.4401 32.2905C55.9145 32.603 55.5026 33.0256 55.2043 33.5582C54.906 34.0838 54.7533 34.6697 54.7462 35.3161V37.9901C54.7462 38.7997 54.8953 39.4993 55.1936 40.0888C55.499 40.6783 55.9287 41.1328 56.4827 41.4524C57.0367 41.772 57.6936 41.9318 58.4536 41.9318C58.9578 41.9318 59.4195 41.8608 59.8385 41.7188C60.2576 41.5767 60.6162 41.3636 60.9145 41.0795C61.2128 40.7955 61.4401 40.4474 61.5963 40.0355L65.7938 40.3125C65.5807 41.321 65.1439 42.2017 64.4834 42.9545C63.83 43.7003 62.9848 44.2827 61.9479 44.7017C60.9181 45.1136 59.7284 45.3196 58.379 45.3196ZM86.3949 38.0327V28.6364H90.9333V45H86.576V42.0277H86.4056C86.0363 42.9865 85.4219 43.7571 84.5625 44.3395C83.7103 44.9219 82.6698 45.2131 81.4411 45.2131C80.3473 45.2131 79.385 44.9645 78.554 44.4673C77.723 43.9702 77.0732 43.2635 76.6044 42.3473C76.1428 41.4311 75.9084 40.3338 75.9013 39.0554V28.6364H80.4397V38.2457C80.4468 39.2116 80.706 39.9751 81.2174 40.5362C81.7287 41.0973 82.4141 41.3778 83.2735 41.3778C83.8203 41.3778 84.3317 41.2536 84.8076 41.005C85.2834 40.7493 85.6669 40.3729 85.9581 39.8757C86.2564 39.3786 86.402 38.7642 86.3949 38.0327ZM101.613 45V28.6364H106.013V31.4915H106.184C106.482 30.4759 106.983 29.7088 107.686 29.1903C108.389 28.6648 109.199 28.402 110.115 28.402C110.342 28.402 110.587 28.4162 110.85 28.4446C111.113 28.473 111.344 28.5121 111.542 28.5618V32.5888C111.329 32.5249 111.035 32.468 110.658 32.4183C110.282 32.3686 109.937 32.3438 109.625 32.3438C108.957 32.3438 108.361 32.4893 107.835 32.7805C107.317 33.0646 106.905 33.4624 106.599 33.9737C106.301 34.4851 106.152 35.0746 106.152 35.7422V45H101.613ZM127.571 45.3196C125.916 45.3196 124.485 44.968 123.277 44.2649C122.077 43.5547 121.15 42.5675 120.497 41.3033C119.843 40.032 119.517 38.5582 119.517 36.8821C119.517 35.1918 119.843 33.7145 120.497 32.4503C121.15 31.179 122.077 30.1918 123.277 29.4886C124.485 28.7784 125.916 28.4233 127.571 28.4233C129.225 28.4233 130.653 28.7784 131.853 29.4886C133.061 30.1918 133.991 31.179 134.644 32.4503C135.298 33.7145 135.625 35.1918 135.625 36.8821C135.625 38.5582 135.298 40.032 134.644 41.3033C133.991 42.5675 133.061 43.5547 131.853 44.2649C130.653 44.968 129.225 45.3196 127.571 45.3196ZM127.592 41.804C128.345 41.804 128.973 41.5909 129.478 41.1648C129.982 40.7315 130.362 40.142 130.617 39.3963C130.88 38.6506 131.012 37.8018 131.012 36.8501C131.012 35.8984 130.88 35.0497 130.617 34.304C130.362 33.5582 129.982 32.9687 129.478 32.5355C128.973 32.1023 128.345 31.8857 127.592 31.8857C126.832 31.8857 126.193 32.1023 125.674 32.5355C125.163 32.9687 124.776 33.5582 124.513 34.304C124.257 35.0497 124.13 35.8984 124.13 36.8501C124.13 37.8018 124.257 38.6506 124.513 39.3963C124.776 40.142 125.163 40.7315 125.674 41.1648C126.193 41.5909 126.832 41.804 127.592 41.804ZM158.873 26.9851V23.1818H176.792V26.9851H170.113V45H165.553V26.9851H158.873ZM195.38 34.2401V37.8409H185.43V34.2401H195.38ZM219.912 33.3026L215.757 33.5582C215.686 33.2031 215.534 32.8835 215.299 32.5994C215.065 32.3082 214.756 32.0774 214.372 31.907C213.996 31.7294 213.545 31.6406 213.019 31.6406C212.316 31.6406 211.723 31.7898 211.24 32.0881C210.757 32.3793 210.516 32.7699 210.516 33.2599C210.516 33.6506 210.672 33.9808 210.985 34.2507C211.297 34.5206 211.833 34.7372 212.593 34.9006L215.555 35.4972C217.146 35.8239 218.332 36.3494 219.113 37.0739C219.894 37.7983 220.285 38.75 220.285 39.929C220.285 41.0014 219.969 41.9425 219.337 42.7521C218.712 43.5618 217.852 44.1939 216.759 44.6484C215.672 45.0959 214.418 45.3196 212.998 45.3196C210.832 45.3196 209.106 44.8686 207.82 43.9666C206.542 43.0575 205.793 41.8217 205.573 40.2592L210.036 40.0249C210.171 40.6854 210.498 41.1896 211.016 41.5376C211.535 41.8786 212.199 42.049 213.009 42.049C213.804 42.049 214.443 41.8963 214.926 41.5909C215.416 41.2784 215.665 40.8771 215.672 40.3871C215.665 39.9751 215.491 39.6378 215.15 39.375C214.809 39.1051 214.284 38.8991 213.573 38.7571L210.739 38.1925C209.141 37.8729 207.952 37.3189 207.171 36.5305C206.396 35.7422 206.009 34.7372 206.009 33.5156C206.009 32.4645 206.293 31.5589 206.862 30.799C207.437 30.0391 208.243 29.4531 209.28 29.0412C210.324 28.6293 211.546 28.4233 212.945 28.4233C215.012 28.4233 216.638 28.8601 217.824 29.7337C219.017 30.6072 219.713 31.7969 219.912 33.3026ZM234.731 35.5398V45H230.193V23.1818H234.603V31.5234H234.795C235.164 30.5575 235.761 29.8011 236.585 29.2543C237.409 28.7003 238.442 28.4233 239.685 28.4233C240.821 28.4233 241.812 28.6719 242.657 29.169C243.509 29.6591 244.17 30.3658 244.639 31.2891C245.115 32.2053 245.349 33.3026 245.342 34.581V45H240.804V35.3906C240.811 34.3821 240.555 33.5973 240.036 33.0362C239.525 32.4751 238.808 32.1946 237.884 32.1946C237.267 32.1946 236.72 32.326 236.244 32.5888C235.775 32.8516 235.406 33.2351 235.136 33.7393C234.873 34.2365 234.738 34.8366 234.731 35.5398ZM255.963 45V28.6364H260.502V45H255.963ZM258.243 26.527C257.569 26.527 256.99 26.3033 256.507 25.8558C256.031 25.4013 255.793 24.858 255.793 24.2259C255.793 23.6009 256.031 23.0646 256.507 22.6172C256.99 22.1626 257.569 21.9354 258.243 21.9354C258.918 21.9354 259.493 22.1626 259.969 22.6172C260.452 23.0646 260.694 23.6009 260.694 24.2259C260.694 24.858 260.452 25.4013 259.969 25.8558C259.493 26.3033 258.918 26.527 258.243 26.527ZM271.187 45V28.6364H275.587V31.4915H275.758C276.056 30.4759 276.557 29.7088 277.26 29.1903C277.963 28.6648 278.772 28.402 279.689 28.402C279.916 28.402 280.161 28.4162 280.424 28.4446C280.687 28.473 280.917 28.5121 281.116 28.5618V32.5888C280.903 32.5249 280.608 32.468 280.232 32.4183C279.856 32.3686 279.511 32.3438 279.199 32.3438C278.531 32.3438 277.934 32.4893 277.409 32.7805C276.89 33.0646 276.478 33.4624 276.173 33.9737C275.875 34.4851 275.726 35.0746 275.726 35.7422V45H271.187ZM300.037 28.6364V32.0455H290.182V28.6364H300.037ZM292.42 24.7159H296.958V39.9716C296.958 40.3906 297.022 40.7173 297.15 40.9517C297.278 41.179 297.455 41.3388 297.682 41.4311C297.917 41.5234 298.187 41.5696 298.492 41.5696C298.705 41.5696 298.918 41.5518 299.131 41.5163C299.344 41.4737 299.508 41.4418 299.621 41.4205L300.335 44.7976C300.108 44.8686 299.788 44.9503 299.376 45.0426C298.964 45.142 298.464 45.2024 297.874 45.2237C296.78 45.2663 295.822 45.1207 294.998 44.7869C294.181 44.4531 293.545 43.9347 293.091 43.2315C292.636 42.5284 292.413 41.6406 292.42 40.5682V24.7159Z" fill="white"/>
<path d="M40.1456 23.1818H42.1456V21.1818H40.1456V23.1818ZM40.1456 45V47H42.1456V45H40.1456ZM36.1612 45L34.516 46.1372L35.1124 47H36.1612V45ZM26.669 31.2678L28.3142 30.1305L27.7179 29.2678H26.669V31.2678ZM26.5092 31.2678V29.2678H24.5092V31.2678H26.5092ZM26.5092 45V47H28.5092V45H26.5092ZM21.8963 45H19.8963V47H21.8963V45ZM21.8963 23.1818V21.1818H19.8963V23.1818H21.8963ZM25.9446 23.1818L27.5936 22.0501L26.9977 21.1818H25.9446V23.1818ZM35.3622 36.9034L33.7132 38.0352L34.3091 38.9034H35.3622V36.9034ZM35.554 36.9034V38.9034H37.554V36.9034H35.554ZM35.554 23.1818V21.1818H33.554V23.1818H35.554ZM38.1456 23.1818V45H42.1456V23.1818H38.1456ZM40.1456 43H36.1612V47H40.1456V43ZM37.8064 43.8628L28.3142 30.1305L25.0238 32.405L34.516 46.1372L37.8064 43.8628ZM26.669 29.2678H26.5092V33.2678H26.669V29.2678ZM24.5092 31.2678V45H28.5092V31.2678H24.5092ZM26.5092 43H21.8963V47H26.5092V43ZM23.8963 45V23.1818H19.8963V45H23.8963ZM21.8963 25.1818H25.9446V21.1818H21.8963V25.1818ZM24.2956 24.3136L33.7132 38.0352L37.0112 35.7717L27.5936 22.0501L24.2956 24.3136ZM35.3622 38.9034H35.554V34.9034H35.3622V38.9034ZM37.554 36.9034V23.1818H33.554V36.9034H37.554ZM35.554 25.1818H40.1456V21.1818H35.554V25.1818ZM54.0324 44.2969L53.0412 46.034L53.0534 46.0408L54.0324 44.2969ZM51.2412 41.3778L49.4645 42.2961L49.4666 42.3002L51.2412 41.3778ZM51.2412 32.4609L49.4624 31.5467V31.5467L51.2412 32.4609ZM54.0005 29.4886L52.9775 27.77L52.973 27.7727L54.0005 29.4886ZM61.2128 28.9453L60.5121 30.8186L60.5207 30.8218L60.5293 30.8249L61.2128 28.9453ZM63.6631 30.4901L62.2561 31.9115L62.2634 31.9186L63.6631 30.4901ZM65.3037 33.0895L63.4305 33.7903L63.4321 33.7945L65.3037 33.0895ZM65.8897 37.9794V39.9794H67.8897V37.9794H65.8897ZM52.0722 37.9794H50.0722V39.9794H52.0722V37.9794ZM52.0722 35.1669V33.1669H50.0722V35.1669H52.0722ZM61.6176 35.1669V37.1669H63.6176V35.1669H61.6176ZM61.1915 33.4304L59.449 34.4121V34.4121L61.1915 33.4304ZM60.009 32.2479L58.9982 33.9736L59.0127 33.9821L59.0273 33.9904L60.009 32.2479ZM56.4401 32.2905L57.4622 34.0096L57.4691 34.0055L56.4401 32.2905ZM55.2043 33.5582L56.9437 34.5455L56.9493 34.5354L55.2043 33.5582ZM54.7462 35.3161L52.7463 35.2941L52.7462 35.3051V35.3161H54.7462ZM55.1936 40.0888L53.4091 40.9918L53.4134 41.0003L53.4178 41.0088L55.1936 40.0888ZM59.8385 41.7188L59.1964 39.8246L59.8385 41.7188ZM60.9145 41.0795L59.5352 39.6313L59.5352 39.6313L60.9145 41.0795ZM61.5963 40.0355L61.728 38.0399L60.2512 37.9424L59.7263 39.3262L61.5963 40.0355ZM65.7938 40.3125L67.7506 40.7259L68.2275 38.4687L65.9255 38.3168L65.7938 40.3125ZM64.4834 42.9545L62.98 41.6355L62.9791 41.6365L64.4834 42.9545ZM61.9479 44.7017L62.6907 46.5587L62.6973 46.556L61.9479 44.7017ZM58.379 43.3196C56.9674 43.3196 55.8704 43.0351 55.0115 42.5529L53.0534 46.0408C54.6234 46.9223 56.4241 47.3196 58.379 47.3196V43.3196ZM55.0236 42.5598C54.157 42.0653 53.4955 41.3782 53.0158 40.4555L49.4666 42.3002C50.2938 43.8916 51.4931 45.1506 53.0412 46.034L55.0236 42.5598ZM53.0179 40.4595C52.5393 39.5334 52.2611 38.3663 52.2611 36.8928H48.2611C48.2611 38.8709 48.6363 40.6938 49.4645 42.2961L53.0179 40.4595ZM52.2611 36.8928C52.2611 35.4712 52.5357 34.3175 53.02 33.3752L49.4624 31.5467C48.6399 33.147 48.2611 34.9478 48.2611 36.8928H52.2611ZM53.02 33.3752C53.5088 32.4241 54.1735 31.7162 55.0279 31.2045L52.973 27.7727C51.4553 28.6815 50.2804 29.9551 49.4624 31.5467L53.02 33.3752ZM55.0234 31.2072C55.8616 30.7083 56.8959 30.4233 58.1979 30.4233V26.4233C56.2897 26.4233 54.5257 26.8485 52.9775 27.77L55.0234 31.2072ZM58.1979 30.4233C59.059 30.4233 59.8245 30.5614 60.5121 30.8186L61.9135 27.0721C60.7403 26.6332 59.4959 26.4233 58.1979 26.4233V30.4233ZM60.5293 30.8249C61.2006 31.069 61.7693 31.4296 62.2562 31.9115L65.07 29.0686C64.1649 28.1727 63.1 27.5034 61.8963 27.0657L60.5293 30.8249ZM62.2634 31.9186C62.7312 32.377 63.1289 32.9842 63.4305 33.7903L67.1769 32.3886C66.6973 31.1067 66.0012 29.981 65.0628 29.0615L62.2634 31.9186ZM63.4321 33.7945C63.7192 34.5566 63.8897 35.5225 63.8897 36.733H67.8897C67.8897 35.1593 67.6695 33.6962 67.1753 32.3844L63.4321 33.7945ZM63.8897 36.733V37.9794H67.8897V36.733H63.8897ZM65.8897 35.9794H52.0722V39.9794H65.8897V35.9794ZM54.0722 37.9794V35.1669H50.0722V37.9794H54.0722ZM52.0722 37.1669H61.6176V33.1669H52.0722V37.1669ZM63.6176 35.1669C63.6176 34.2147 63.4078 33.2896 62.934 32.4487L59.449 34.4121C59.5434 34.5797 59.6176 34.8123 59.6176 35.1669H63.6176ZM62.934 32.4487C62.4706 31.6261 61.8133 30.9688 60.9907 30.5054L59.0273 33.9904C59.2132 34.0951 59.3443 34.2262 59.449 34.4121L62.934 32.4487ZM61.0198 30.5221C60.1734 30.0264 59.2354 29.8111 58.2725 29.8111V33.8111C58.6305 33.8111 58.8502 33.887 58.9982 33.9736L61.0198 30.5221ZM58.2725 29.8111C57.2617 29.8111 56.2877 30.0495 55.4111 30.5755L57.4691 34.0055C57.6578 33.8922 57.9054 33.8111 58.2725 33.8111V29.8111ZM55.4179 30.5714C54.5909 31.0631 53.9295 31.7414 53.4593 32.581L56.9493 34.5354C57.0757 34.3098 57.2381 34.1428 57.4622 34.0096L55.4179 30.5714ZM53.4649 32.571C52.9879 33.4115 52.7569 34.3334 52.7463 35.2941L56.7461 35.338C56.7497 35.006 56.8241 34.7561 56.9437 34.5454L53.4649 32.571ZM52.7462 35.3161V37.9901H56.7462V35.3161H52.7462ZM52.7462 37.9901C52.7462 39.0438 52.9408 40.0662 53.4091 40.9918L56.9782 39.1858C56.8499 38.9323 56.7462 38.5556 56.7462 37.9901H52.7462ZM53.4178 41.0088C53.892 41.9241 54.5851 42.6666 55.4833 43.1848L57.4822 39.72C57.2723 39.599 57.1061 39.4324 56.9695 39.1688L53.4178 41.0088ZM55.4833 43.1848C56.3938 43.7101 57.4091 43.9318 58.4536 43.9318V39.9318C57.9782 39.9318 57.6795 39.8339 57.4822 39.72L55.4833 43.1848ZM58.4536 43.9318C59.1462 43.9318 59.8281 43.8341 60.4806 43.6129L59.1964 39.8246C59.0109 39.8875 58.7695 39.9318 58.4536 39.9318V43.9318ZM60.4806 43.6129C61.1541 43.3846 61.7698 43.0269 62.2938 42.5278L59.5352 39.6313C59.4627 39.7004 59.361 39.7688 59.1964 39.8246L60.4806 43.6129ZM62.2938 42.5278C62.8238 42.0231 63.2114 41.4168 63.4663 40.7448L59.7263 39.3262C59.6688 39.4781 59.6018 39.5678 59.5352 39.6313L62.2938 42.5278ZM61.4646 42.0312L65.6621 42.3082L65.9255 38.3168L61.728 38.0399L61.4646 42.0312ZM63.837 39.8991C63.6927 40.5821 63.4074 41.1484 62.98 41.6355L65.9868 44.2736C66.8805 43.255 67.4688 42.06 67.7506 40.7259L63.837 39.8991ZM62.9791 41.6365C62.557 42.1183 61.9828 42.5305 61.1986 42.8474L62.6973 46.556C63.9868 46.0349 65.103 45.2823 65.9877 44.2726L62.9791 41.6365ZM61.2051 42.8448C60.4567 43.1441 59.5276 43.3196 58.379 43.3196V47.3196C59.9293 47.3196 61.3795 47.0831 62.6907 46.5587L61.2051 42.8448ZM86.3949 38.0327H84.3949V38.0424L84.395 38.0521L86.3949 38.0327ZM86.3949 28.6364V26.6364H84.3949V28.6364H86.3949ZM90.9333 28.6364H92.9333V26.6364H90.9333V28.6364ZM90.9333 45V47H92.9333V45H90.9333ZM86.576 45H84.576V47H86.576V45ZM86.576 42.0277H88.576V40.0277H86.576V42.0277ZM86.4056 42.0277V40.0277H85.0327L84.5392 41.3088L86.4056 42.0277ZM84.5625 44.3395L83.4405 42.6838L83.4342 42.6882L84.5625 44.3395ZM78.554 44.4673L79.5808 42.7511L78.554 44.4673ZM76.6044 42.3473L74.8183 43.2473L74.8239 43.2583L76.6044 42.3473ZM75.9013 39.0554H73.9013L73.9013 39.0665L75.9013 39.0554ZM75.9013 28.6364V26.6364H73.9013V28.6364H75.9013ZM80.4397 28.6364H82.4397V26.6364H80.4397V28.6364ZM80.4397 38.2457H78.4397V38.2531L78.4397 38.2604L80.4397 38.2457ZM81.2174 40.5362L82.6955 39.189L81.2174 40.5362ZM84.8076 41.005L85.7336 42.7777L85.7439 42.7723L85.7542 42.7668L84.8076 41.005ZM85.9581 39.8757L84.2431 38.8467L84.2377 38.8558L84.2324 38.8649L85.9581 39.8757ZM88.3949 38.0327V28.6364H84.3949V38.0327H88.3949ZM86.3949 30.6364H90.9333V26.6364H86.3949V30.6364ZM88.9333 28.6364V45H92.9333V28.6364H88.9333ZM90.9333 43H86.576V47H90.9333V43ZM88.576 45V42.0277H84.576V45H88.576ZM86.576 40.0277H86.4056V44.0277H86.576V40.0277ZM84.5392 41.3088C84.3183 41.8825 83.9658 42.3279 83.4405 42.6839L85.6845 45.9951C86.878 45.1863 87.7543 44.0905 88.2719 42.7466L84.5392 41.3088ZM83.4342 42.6882C82.9735 43.003 82.3453 43.2131 81.4411 43.2131V47.2131C82.9943 47.2131 84.447 46.8408 85.6909 45.9908L83.4342 42.6882ZM81.4411 43.2131C80.6611 43.2131 80.0628 43.0394 79.5808 42.7511L77.5272 46.1836C78.7072 46.8896 80.0336 47.2131 81.4411 47.2131V43.2131ZM79.5808 42.7511C79.0921 42.4586 78.6941 42.0407 78.3849 41.4363L74.8239 43.2583C75.4523 44.4863 76.354 45.4817 77.5272 46.1836L79.5808 42.7511ZM78.3905 41.4473C78.0978 40.8664 77.9071 40.0882 77.9013 39.0443L73.9013 39.0665C73.9097 40.5794 74.1878 41.9958 74.8184 43.2473L78.3905 41.4473ZM77.9013 39.0554V28.6364H73.9013V39.0554H77.9013ZM75.9013 30.6364H80.4397V26.6364H75.9013V30.6364ZM78.4397 28.6364V38.2457H82.4397V28.6364H78.4397ZM78.4397 38.2604C78.4494 39.5808 78.8125 40.8667 79.7392 41.8834L82.6955 39.189C82.5995 39.0836 82.4441 38.8425 82.4396 38.231L78.4397 38.2604ZM79.7392 41.8834C80.6815 42.9174 81.9336 43.3778 83.2735 43.3778V39.3778C82.8946 39.3778 82.7759 39.2772 82.6955 39.189L79.7392 41.8834ZM83.2735 43.3778C84.1366 43.3778 84.9664 43.1784 85.7336 42.7777L83.8815 39.2323C83.697 39.3287 83.5041 39.3778 83.2735 39.3778V43.3778ZM85.7542 42.7668C86.5756 42.3254 87.2198 41.6789 87.6839 40.8865L84.2324 38.8649C84.1141 39.0669 83.9913 39.1732 83.8609 39.2432L85.7542 42.7668ZM87.6731 40.9047C88.2052 40.018 88.4046 39.0182 88.3948 38.0133L84.395 38.0521C84.3995 38.5103 84.3077 38.7391 84.2431 38.8467L87.6731 40.9047ZM101.613 45H99.6134V47H101.613V45ZM101.613 28.6364V26.6364H99.6134V28.6364H101.613ZM106.013 28.6364H108.013V26.6364H106.013V28.6364ZM106.013 31.4915H104.013V33.4915H106.013V31.4915ZM106.184 31.4915V33.4915H107.681L108.103 32.0551L106.184 31.4915ZM107.686 29.1903L108.873 30.8001L108.883 30.7923L107.686 29.1903ZM110.85 28.4446L111.065 26.4562L111.065 26.4562L110.85 28.4446ZM111.542 28.5618H113.542V27.0002L112.027 26.6215L111.542 28.5618ZM111.542 32.5888L110.968 34.5044L113.542 35.2768V32.5888H111.542ZM107.835 32.7805L108.796 34.5345L108.804 34.53L107.835 32.7805ZM106.599 33.9737L104.882 32.9482L104.877 32.9571L104.872 32.966L106.599 33.9737ZM106.152 45V47H108.152V45H106.152ZM103.613 45V28.6364H99.6134V45H103.613ZM101.613 30.6364H106.013V26.6364H101.613V30.6364ZM104.013 28.6364V31.4915H108.013V28.6364H104.013ZM106.013 33.4915H106.184V29.4915H106.013V33.4915ZM108.103 32.0551C108.305 31.3676 108.591 31.0079 108.873 30.8L106.499 27.5806C105.375 28.4097 104.659 29.5841 104.265 30.9279L108.103 32.0551ZM108.883 30.7923C109.225 30.537 109.61 30.402 110.115 30.402V26.402C108.787 26.402 107.553 26.7926 106.488 27.5884L108.883 30.7923ZM110.115 30.402C110.26 30.402 110.432 30.4111 110.635 30.433L111.065 26.4562C110.742 26.4213 110.424 26.402 110.115 26.402V30.402ZM110.635 30.433C110.831 30.4542 110.968 30.4798 111.057 30.5021L112.027 26.6215C111.719 26.5443 111.394 26.4918 111.065 26.4562L110.635 30.433ZM109.542 28.5618V32.5888H113.542V28.5618H109.542ZM112.117 30.6731C111.755 30.5645 111.34 30.4909 110.92 30.4355L110.396 34.4011C110.73 34.4451 110.904 34.4852 110.968 34.5044L112.117 30.6731ZM110.92 30.4355C110.475 30.3767 110.041 30.3438 109.625 30.3438V34.3438C109.833 34.3438 110.089 34.3605 110.396 34.4011L110.92 30.4355ZM109.625 30.3438C108.657 30.3438 107.72 30.5579 106.866 31.0311L108.804 34.53C109.001 34.4208 109.258 34.3438 109.625 34.3438V30.3438ZM106.874 31.0266C106.041 31.4832 105.369 32.1335 104.882 32.9482L108.316 34.9992C108.441 34.7912 108.592 34.6461 108.796 34.5345L106.874 31.0266ZM104.872 32.966C104.373 33.8208 104.152 34.7666 104.152 35.7422H108.152C108.152 35.3825 108.229 35.1494 108.327 34.9815L104.872 32.966ZM104.152 35.7422V45H108.152V35.7422H104.152ZM106.152 43H101.613V47H106.152V43ZM123.277 44.2649L122.259 45.9862L122.271 45.9932L123.277 44.2649ZM120.497 41.3033L118.718 42.2175L118.72 42.2216L120.497 41.3033ZM120.497 32.4503L122.273 33.3686L122.275 33.3645L120.497 32.4503ZM123.277 29.4886L124.288 31.2143L124.291 31.2125L123.277 29.4886ZM131.853 29.4886L130.835 31.2099L130.847 31.2169L131.853 29.4886ZM134.644 32.4503L132.866 33.3645L132.868 33.3686L134.644 32.4503ZM134.644 41.3033L136.421 42.2216L136.423 42.2175L134.644 41.3033ZM131.853 44.2649L132.864 45.9906L132.867 45.9888L131.853 44.2649ZM129.478 41.1648L130.768 42.6924L130.775 42.6871L130.781 42.6818L129.478 41.1648ZM130.617 39.3963L128.731 38.7316L128.728 38.7396L128.726 38.7477L130.617 39.3963ZM130.617 34.304L128.726 34.9526L128.728 34.9607L128.731 34.9687L130.617 34.304ZM125.674 32.5355L124.392 31.0008L124.381 31.0095L125.674 32.5355ZM124.513 34.304L122.627 33.6393L122.624 33.6473L122.621 33.6553L124.513 34.304ZM124.513 39.3963L122.621 40.045L122.624 40.053L122.627 40.061L124.513 39.3963ZM125.674 41.1648L124.381 42.6907L124.393 42.7004L124.404 42.7099L125.674 41.1648ZM127.571 43.3196C126.204 43.3196 125.133 43.0315 124.284 42.5366L122.271 45.9932C123.836 46.9046 125.628 47.3196 127.571 47.3196V43.3196ZM124.296 42.5437C123.425 42.0287 122.758 41.3228 122.273 40.385L118.72 42.2216C119.542 43.8121 120.728 45.0807 122.259 45.9862L124.296 42.5437ZM122.275 40.389C121.791 39.4456 121.517 38.2951 121.517 36.8821H117.517C117.517 38.8214 117.896 40.6183 118.718 42.2175L122.275 40.389ZM121.517 36.8821C121.517 35.4516 121.792 34.3002 122.273 33.3686L118.72 31.532C117.895 33.1287 117.517 34.9319 117.517 36.8821H121.517ZM122.275 33.3645C122.76 32.4213 123.425 31.7199 124.288 31.2143L122.266 27.7629C120.729 28.6636 119.54 29.9366 118.718 31.536L122.275 33.3645ZM124.291 31.2125C125.14 30.7135 126.207 30.4233 127.571 30.4233V26.4233C125.624 26.4233 123.83 26.8433 122.263 27.7648L124.291 31.2125ZM127.571 30.4233C128.934 30.4233 129.996 30.7136 130.835 31.2099L132.872 27.7674C131.31 26.8432 129.516 26.4233 127.571 26.4233V30.4233ZM130.847 31.2169C131.716 31.7233 132.382 32.4244 132.866 33.3645L136.423 31.536C135.6 29.9335 134.405 28.6602 132.86 27.7603L130.847 31.2169ZM132.868 33.3686C133.349 34.3002 133.625 35.4516 133.625 36.8821H137.625C137.625 34.9319 137.246 33.1287 136.421 31.532L132.868 33.3686ZM133.625 36.8821C133.625 38.2951 133.351 39.4456 132.866 40.389L136.423 42.2175C137.245 40.6183 137.625 38.8214 137.625 36.8821H133.625ZM132.868 40.385C132.385 41.3197 131.716 42.0252 130.839 42.541L132.867 45.9888C134.405 45.0841 135.597 43.8152 136.421 42.2216L132.868 40.385ZM130.842 42.5392C130.002 43.0313 128.938 43.3196 127.571 43.3196V47.3196C129.513 47.3196 131.304 46.9047 132.864 45.9906L130.842 42.5392ZM127.592 43.804C128.747 43.804 129.853 43.4661 130.768 42.6924L128.187 39.6372C128.094 39.7158 127.942 39.804 127.592 39.804V43.804ZM130.781 42.6818C131.601 41.9768 132.16 41.0644 132.509 40.045L128.726 38.7477C128.564 39.2197 128.362 39.4863 128.174 39.6478L130.781 42.6818ZM132.504 40.061C132.855 39.0633 133.012 37.9835 133.012 36.8501H129.012C129.012 37.6202 128.905 38.2379 128.731 38.7316L132.504 40.061ZM133.012 36.8501C133.012 35.7168 132.855 34.637 132.504 33.6393L128.731 34.9687C128.905 35.4624 129.012 36.0801 129.012 36.8501H133.012ZM132.509 33.6553C132.16 32.6359 131.601 31.7235 130.781 31.0185L128.174 34.0525C128.362 34.214 128.564 34.4806 128.726 34.9526L132.509 33.6553ZM130.781 31.0185C129.866 30.2323 128.755 29.8857 127.592 29.8857V33.8857C127.934 33.8857 128.081 33.9722 128.174 34.0525L130.781 31.0185ZM127.592 29.8857C126.425 29.8857 125.315 30.2293 124.392 31.0008L126.957 34.0702C127.07 33.9752 127.239 33.8857 127.592 33.8857V29.8857ZM124.381 31.0095C123.554 31.7104 122.986 32.6195 122.627 33.6393L126.399 34.9687C126.566 34.497 126.772 34.2271 126.967 34.0615L124.381 31.0095ZM122.621 33.6553C122.281 34.648 122.13 35.722 122.13 36.8501H126.13C126.13 36.0749 126.234 35.4515 126.405 34.9526L122.621 33.6553ZM122.13 36.8501C122.13 37.9783 122.281 39.0523 122.621 40.045L126.405 38.7477C126.234 38.2488 126.13 37.6254 126.13 36.8501H122.13ZM122.627 40.061C122.986 41.0808 123.554 41.9899 124.381 42.6907L126.967 39.6388C126.772 39.4732 126.566 39.2033 126.399 38.7316L122.627 40.061ZM124.404 42.7099C125.328 43.4689 126.434 43.804 127.592 43.804V39.804C127.23 39.804 127.058 39.713 126.944 39.6197L124.404 42.7099ZM158.873 26.9851H156.873V28.9851H158.873V26.9851ZM158.873 23.1818V21.1818H156.873V23.1818H158.873ZM176.792 23.1818H178.792V21.1818H176.792V23.1818ZM176.792 26.9851V28.9851H178.792V26.9851H176.792ZM170.113 26.9851V24.9851H168.113V26.9851H170.113ZM170.113 45V47H172.113V45H170.113ZM165.553 45H163.553V47H165.553V45ZM165.553 26.9851H167.553V24.9851H165.553V26.9851ZM160.873 26.9851V23.1818H156.873V26.9851H160.873ZM158.873 25.1818H176.792V21.1818H158.873V25.1818ZM174.792 23.1818V26.9851H178.792V23.1818H174.792ZM176.792 24.9851H170.113V28.9851H176.792V24.9851ZM168.113 26.9851V45H172.113V26.9851H168.113ZM170.113 43H165.553V47H170.113V43ZM167.553 45V26.9851H163.553V45H167.553ZM165.553 24.9851H158.873V28.9851H165.553V24.9851ZM195.38 34.2401H197.38V32.2401H195.38V34.2401ZM195.38 37.8409V39.8409H197.38V37.8409H195.38ZM185.43 37.8409H183.43V39.8409H185.43V37.8409ZM185.43 34.2401V32.2401H183.43V34.2401H185.43ZM193.38 34.2401V37.8409H197.38V34.2401H193.38ZM195.38 35.8409H185.43V39.8409H195.38V35.8409ZM187.43 37.8409V34.2401H183.43V37.8409H187.43ZM185.43 36.2401H195.38V32.2401H185.43V36.2401ZM219.912 33.3026L220.035 35.2988L222.176 35.167L221.895 33.0407L219.912 33.3026ZM215.757 33.5582L213.796 33.9505L214.138 35.6616L215.88 35.5545L215.757 33.5582ZM215.299 32.5994L213.741 33.8535L213.749 33.8629L213.756 33.8722L215.299 32.5994ZM214.372 31.907L213.519 33.7158L213.539 33.7254L213.56 33.7346L214.372 31.907ZM211.24 32.0881L212.273 33.8008L212.282 33.7953L212.291 33.7897L211.24 32.0881ZM210.985 34.2507L209.677 35.7644V35.7644L210.985 34.2507ZM212.593 34.9006L212.173 36.8559L212.186 36.8586L212.198 36.8612L212.593 34.9006ZM215.555 35.4972L215.957 33.538L215.95 33.5365L215.555 35.4972ZM219.113 37.0739L217.753 38.5404V38.5404L219.113 37.0739ZM219.337 42.7521L217.76 41.5214L217.754 41.53L219.337 42.7521ZM216.759 44.6484L217.52 46.4978L217.526 46.4953L216.759 44.6484ZM207.82 43.9666L206.661 45.5966L206.672 45.6038L207.82 43.9666ZM205.573 40.2592L205.468 38.262L203.288 38.3765L203.592 40.5383L205.573 40.2592ZM210.036 40.0249L211.996 39.6245L211.651 37.9373L209.931 38.0276L210.036 40.0249ZM211.016 41.5376L209.902 43.1982L209.91 43.2035L209.918 43.2088L211.016 41.5376ZM214.926 41.5909L215.995 43.2813L216.002 43.2772L214.926 41.5909ZM215.672 40.3871L217.672 40.4161L217.672 40.3843L217.672 40.3526L215.672 40.3871ZM215.15 39.375L213.909 40.9431L213.919 40.9511L213.929 40.959L215.15 39.375ZM213.573 38.7571L213.966 36.7959L213.964 36.7957L213.573 38.7571ZM210.739 38.1925L210.347 40.1536L210.349 40.1539L210.739 38.1925ZM207.171 36.5305L205.744 37.9319L205.75 37.9383L207.171 36.5305ZM206.862 30.799L205.267 29.5918L205.26 29.6014L206.862 30.799ZM209.28 29.0412L208.546 27.1808L208.542 27.1825L209.28 29.0412ZM217.824 29.7337L216.638 31.344L216.643 31.3474L217.824 29.7337ZM219.789 31.3063L215.634 31.562L215.88 35.5545L220.035 35.2988L219.789 31.3063ZM217.718 33.166C217.582 32.4817 217.283 31.8608 216.842 31.3267L213.756 33.8722C213.785 33.9063 213.791 33.9246 213.796 33.9505L217.718 33.166ZM216.857 31.3454C216.4 30.7774 215.823 30.3629 215.185 30.0793L213.56 33.7346C213.689 33.7919 213.73 33.8391 213.741 33.8535L216.857 31.3454ZM215.226 30.0981C214.522 29.7661 213.765 29.6406 213.019 29.6406V33.6406C213.325 33.6406 213.47 33.6927 213.519 33.7158L215.226 30.0981ZM213.019 29.6406C212.033 29.6406 211.056 29.8514 210.189 30.3865L212.291 33.7897C212.391 33.7282 212.599 33.6406 213.019 33.6406V29.6406ZM210.208 30.3753C209.232 30.9637 208.516 31.952 208.516 33.2599H212.516C212.516 33.3604 212.486 33.509 212.398 33.6511C212.318 33.7809 212.243 33.8191 212.273 33.8008L210.208 30.3753ZM208.516 33.2599C208.516 34.2685 208.953 35.1392 209.677 35.7644L212.292 32.7371C212.319 32.7606 212.385 32.8276 212.441 32.9453C212.498 33.0658 212.516 33.1803 212.516 33.2599H208.516ZM209.677 35.7644C210.381 36.3725 211.327 36.6741 212.173 36.8559L213.013 32.9452C212.71 32.88 212.503 32.8147 212.37 32.7612C212.23 32.7048 212.23 32.6838 212.292 32.7371L209.677 35.7644ZM212.198 36.8612L215.16 37.4578L215.95 33.5365L212.988 32.94L212.198 36.8612ZM215.153 37.4563C216.559 37.7451 217.346 38.1624 217.753 38.5404L220.473 35.6073C219.318 34.5364 217.733 33.9027 215.957 33.538L215.153 37.4563ZM217.753 38.5404C218.08 38.8438 218.285 39.2408 218.285 39.929H222.285C222.285 38.2592 221.708 36.7528 220.473 35.6073L217.753 38.5404ZM218.285 39.929C218.285 40.5766 218.105 41.0796 217.76 41.5214L220.913 43.9829C221.833 42.8054 222.285 41.4263 222.285 39.929H218.285ZM217.754 41.53C217.373 42.023 216.815 42.4593 215.991 42.8016L217.526 46.4953C218.89 45.9284 220.051 45.1006 220.92 43.9742L217.754 41.53ZM215.997 42.7991C215.197 43.1286 214.21 43.3196 212.998 43.3196V47.3196C214.626 47.3196 216.147 47.0631 217.52 46.4978L215.997 42.7991ZM212.998 43.3196C211.091 43.3196 209.812 42.9209 208.969 42.3294L206.672 45.6038C208.4 46.8163 210.573 47.3196 212.998 47.3196V43.3196ZM208.979 42.3367C208.152 41.7481 207.697 41.0023 207.553 39.9802L203.592 40.5383C203.888 42.6411 204.932 44.3669 206.661 45.5965L208.979 42.3367ZM205.677 42.2565L210.141 42.0221L209.931 38.0276L205.468 38.262L205.677 42.2565ZM208.077 40.4252C208.308 41.5553 208.91 42.5327 209.902 43.1982L212.131 39.877C212.086 39.8466 212.035 39.8154 211.996 39.6245L208.077 40.4252ZM209.918 43.2088C210.848 43.8207 211.926 44.049 213.009 44.049V40.049C212.472 40.049 212.222 39.9364 212.115 39.8665L209.918 43.2088ZM213.009 44.049C214.04 44.049 215.09 43.8535 215.995 43.2813L213.857 39.9005C213.796 39.9391 213.568 40.049 213.009 40.049V44.049ZM216.002 43.2772C216.937 42.6807 217.653 41.7117 217.672 40.4161L213.672 40.3581C213.673 40.3139 213.679 40.2545 213.699 40.1865C213.719 40.118 213.747 40.0554 213.78 40.0023C213.846 39.8956 213.9 39.8732 213.851 39.9046L216.002 43.2772ZM217.672 40.3526C217.654 39.3018 217.169 38.4058 216.371 37.791L213.929 40.959C213.898 40.9355 213.823 40.8666 213.759 40.7419C213.693 40.6147 213.674 40.4961 213.672 40.4216L217.672 40.3526ZM216.391 37.8069C215.69 37.2513 214.804 36.9637 213.966 36.7959L213.181 40.7183C213.451 40.7724 213.643 40.8301 213.77 40.8802C213.901 40.9313 213.931 40.9612 213.909 40.9431L216.391 37.8069ZM213.964 36.7957L211.13 36.231L210.349 40.1539L213.182 40.7185L213.964 36.7957ZM211.132 36.2313C209.751 35.9551 208.99 35.5248 208.591 35.1227L205.75 37.9383C206.914 39.113 208.532 39.7906 210.347 40.1536L211.132 36.2313ZM208.598 35.1292C208.231 34.756 208.009 34.2736 208.009 33.5156H204.009C204.009 35.2008 204.562 36.7284 205.744 37.9318L208.598 35.1292ZM208.009 33.5156C208.009 32.8472 208.182 32.3735 208.463 31.9966L205.26 29.6014C204.405 30.7444 204.009 32.0818 204.009 33.5156H208.009ZM208.456 32.0061C208.776 31.5841 209.262 31.2002 210.018 30.8999L208.542 27.1825C207.224 27.706 206.098 28.4941 205.267 29.5919L208.456 32.0061ZM210.014 30.9016C210.775 30.6016 211.737 30.4233 212.945 30.4233V26.4233C211.354 26.4233 209.873 26.657 208.546 27.1808L210.014 30.9016ZM212.945 30.4233C214.752 30.4233 215.909 30.8075 216.638 31.344L219.01 28.1233C217.366 26.9127 215.271 26.4233 212.945 26.4233V30.4233ZM216.643 31.3474C217.382 31.8889 217.8 32.5833 217.929 33.5644L221.895 33.0407C221.627 31.0104 220.652 29.3256 219.005 28.1199L216.643 31.3474ZM234.731 35.5398L232.731 35.5196L232.731 35.5297V35.5398H234.731ZM234.731 45V47H236.731V45H234.731ZM230.193 45H228.193V47H230.193V45ZM230.193 23.1818V21.1818H228.193V23.1818H230.193ZM234.603 23.1818H236.603V21.1818H234.603V23.1818ZM234.603 31.5234H232.603V33.5234H234.603V31.5234ZM234.795 31.5234V33.5234H236.171L236.663 32.2377L234.795 31.5234ZM236.585 29.2543L237.691 30.9206L237.701 30.9139L236.585 29.2543ZM242.657 29.169L241.643 30.8929L241.652 30.8979L241.66 30.9028L242.657 29.169ZM244.639 31.2891L242.855 32.1944L242.86 32.2027L242.864 32.2109L244.639 31.2891ZM245.342 34.581L243.342 34.5699V34.581H245.342ZM245.342 45V47H247.342V45H245.342ZM240.804 45H238.804V47H240.804V45ZM240.804 35.3906L238.804 35.3765V35.3906H240.804ZM240.036 33.0362L238.558 34.3835L238.568 34.3936L240.036 33.0362ZM236.244 32.5888L235.277 30.838L235.266 30.8442L236.244 32.5888ZM235.136 33.7393L233.373 32.7956L233.368 32.8047L235.136 33.7393ZM232.731 35.5398V45H236.731V35.5398H232.731ZM234.731 43H230.193V47H234.731V43ZM232.193 45V23.1818H228.193V45H232.193ZM230.193 25.1818H234.603V21.1818H230.193V25.1818ZM232.603 23.1818V31.5234H236.603V23.1818H232.603ZM234.603 33.5234H234.795V29.5234H234.603V33.5234ZM236.663 32.2377C236.891 31.6418 237.23 31.2262 237.691 30.9206L235.479 27.588C234.291 28.3761 233.438 29.4733 232.927 30.8092L236.663 32.2377ZM237.701 30.9139C238.12 30.6319 238.739 30.4233 239.685 30.4233V26.4233C238.145 26.4233 236.697 26.7687 235.469 27.5946L237.701 30.9139ZM239.685 30.4233C240.522 30.4233 241.151 30.6036 241.643 30.8929L243.671 27.4452C242.473 26.7402 241.12 26.4233 239.685 26.4233V30.4233ZM241.66 30.9028C242.157 31.1885 242.553 31.5984 242.855 32.1944L246.422 30.3837C245.787 29.1331 244.862 28.1297 243.654 27.4352L241.66 30.9028ZM242.864 32.2109C243.159 32.7783 243.348 33.54 243.342 34.5699L247.342 34.5921C247.35 33.0651 247.071 31.6322 246.414 30.3672L242.864 32.2109ZM243.342 34.581V45H247.342V34.581H243.342ZM245.342 43H240.804V47H245.342V43ZM242.804 45V35.3906H238.804V45H242.804ZM242.803 35.4047C242.813 34.0552 242.467 32.7199 241.505 31.6789L238.568 34.3936C238.643 34.4747 238.808 34.709 238.804 35.3765L242.803 35.4047ZM241.515 31.689C240.544 30.6239 239.239 30.1946 237.884 30.1946V34.1946C238.377 34.1946 238.506 34.3264 238.558 34.3834L241.515 31.689ZM237.884 30.1946C236.975 30.1946 236.087 30.3905 235.277 30.838L237.211 34.3396C237.352 34.2615 237.558 34.1946 237.884 34.1946V30.1946ZM235.266 30.8442C234.443 31.3057 233.81 31.9776 233.373 32.7956L236.899 34.6831C237.001 34.4926 237.108 34.3974 237.222 34.3333L235.266 30.8442ZM233.368 32.8047C232.923 33.6457 232.741 34.5757 232.731 35.5196L236.731 35.56C236.736 35.0976 236.823 34.8273 236.904 34.674L233.368 32.8047ZM255.963 45H253.963V47H255.963V45ZM255.963 28.6364V26.6364H253.963V28.6364H255.963ZM260.502 28.6364H262.502V26.6364H260.502V28.6364ZM260.502 45V47H262.502V45H260.502ZM256.507 25.8558L255.125 27.302L255.136 27.3126L255.148 27.3229L256.507 25.8558ZM256.507 22.6172L257.877 24.0742L257.877 24.0736L256.507 22.6172ZM259.969 22.6172L258.588 24.0634L258.599 24.0739L258.61 24.0843L259.969 22.6172ZM259.969 25.8558L261.339 27.3129L261.34 27.3122L259.969 25.8558ZM257.963 45V28.6364H253.963V45H257.963ZM255.963 30.6364H260.502V26.6364H255.963V30.6364ZM258.502 28.6364V45H262.502V28.6364H258.502ZM260.502 43H255.963V47H260.502V43ZM258.243 24.527C258.059 24.527 257.969 24.4843 257.866 24.3887L255.148 27.3229C256.01 28.1222 257.078 28.527 258.243 28.527V24.527ZM257.888 24.4096C257.821 24.345 257.805 24.3092 257.803 24.3052C257.802 24.3028 257.793 24.2842 257.793 24.2259H253.793C253.793 25.429 254.273 26.4876 255.125 27.302L257.888 24.4096ZM257.793 24.2259C257.793 24.1971 257.796 24.1813 257.797 24.1752C257.798 24.1695 257.799 24.1673 257.8 24.1661C257.8 24.1647 257.803 24.1576 257.813 24.144C257.823 24.1301 257.843 24.1063 257.877 24.0742L255.137 21.1601C254.279 21.9664 253.793 23.0217 253.793 24.2259H257.793ZM257.877 24.0736C257.982 23.9749 258.068 23.9354 258.243 23.9354V19.9354C257.069 19.9354 255.997 20.3504 255.136 21.1608L257.877 24.0736ZM258.243 23.9354C258.418 23.9354 258.494 23.9742 258.588 24.0634L261.351 21.171C260.492 20.3511 259.418 19.9354 258.243 19.9354V23.9354ZM258.61 24.0843C258.645 24.1172 258.665 24.1414 258.676 24.1554C258.686 24.169 258.689 24.1758 258.689 24.1762C258.689 24.1764 258.689 24.1771 258.69 24.1809C258.691 24.1852 258.694 24.1991 258.694 24.2259H262.694C262.694 23.0113 262.195 21.9533 261.328 21.1501L258.61 24.0843ZM258.694 24.2259C258.694 24.2559 258.691 24.2732 258.689 24.2808C258.688 24.2881 258.686 24.292 258.685 24.2951C258.684 24.2973 258.669 24.3333 258.598 24.3994L261.34 27.3122C262.202 26.5006 262.694 25.4392 262.694 24.2259H258.694ZM258.599 24.3988C258.507 24.4849 258.427 24.527 258.243 24.527V28.527C259.409 28.527 260.479 28.1216 261.339 27.3129L258.599 24.3988ZM271.187 45H269.187V47H271.187V45ZM271.187 28.6364V26.6364H269.187V28.6364H271.187ZM275.587 28.6364H277.587V26.6364H275.587V28.6364ZM275.587 31.4915H273.587V33.4915H275.587V31.4915ZM275.758 31.4915V33.4915H277.255L277.677 32.0551L275.758 31.4915ZM277.26 29.1903L278.447 30.8001L278.457 30.7923L277.26 29.1903ZM280.424 28.4446L280.639 26.4562V26.4562L280.424 28.4446ZM281.116 28.5618H283.116V27.0002L281.601 26.6215L281.116 28.5618ZM281.116 32.5888L280.542 34.5044L283.116 35.2768V32.5888H281.116ZM277.409 32.7805L278.37 34.5345L278.378 34.53L277.409 32.7805ZM276.173 33.9737L274.456 32.9482L274.451 32.9571L274.445 32.966L276.173 33.9737ZM275.726 45V47H277.726V45H275.726ZM273.187 45V28.6364H269.187V45H273.187ZM271.187 30.6364H275.587V26.6364H271.187V30.6364ZM273.587 28.6364V31.4915H277.587V28.6364H273.587ZM275.587 33.4915H275.758V29.4915H275.587V33.4915ZM277.677 32.0551C277.878 31.3676 278.165 31.0079 278.447 30.8L276.073 27.5806C274.948 28.4097 274.233 29.5841 273.839 30.9279L277.677 32.0551ZM278.457 30.7923C278.799 30.537 279.184 30.402 279.689 30.402V26.402C278.361 26.402 277.127 26.7926 276.062 27.5884L278.457 30.7923ZM279.689 30.402C279.834 30.402 280.006 30.4111 280.209 30.433L280.639 26.4562C280.316 26.4213 279.998 26.402 279.689 26.402V30.402ZM280.209 30.433C280.405 30.4542 280.542 30.4798 280.631 30.5021L281.601 26.6215C281.292 26.5443 280.968 26.4918 280.639 26.4562L280.209 30.433ZM279.116 28.5618V32.5888H283.116V28.5618H279.116ZM281.691 30.6731C281.329 30.5645 280.913 30.4909 280.494 30.4355L279.97 34.4011C280.303 34.4451 280.477 34.4852 280.542 34.5044L281.691 30.6731ZM280.494 30.4355C280.048 30.3767 279.615 30.3438 279.199 30.3438V34.3438C279.407 34.3438 279.663 34.3605 279.97 34.4011L280.494 30.4355ZM279.199 30.3438C278.23 30.3438 277.294 30.5579 276.44 31.0311L278.378 34.53C278.575 34.4208 278.832 34.3438 279.199 34.3438V30.3438ZM276.448 31.0266C275.614 31.4832 274.943 32.1335 274.456 32.9482L277.89 34.9992C278.014 34.7912 278.166 34.6461 278.37 34.5345L276.448 31.0266ZM274.445 32.966C273.947 33.8208 273.726 34.7666 273.726 35.7422H277.726C277.726 35.3825 277.803 35.1494 277.901 34.9815L274.445 32.966ZM273.726 35.7422V45H277.726V35.7422H273.726ZM275.726 43H271.187V47H275.726V43ZM300.037 28.6364H302.037V26.6364H300.037V28.6364ZM300.037 32.0455V34.0455H302.037V32.0455H300.037ZM290.182 32.0455H288.182V34.0455H290.182V32.0455ZM290.182 28.6364V26.6364H288.182V28.6364H290.182ZM292.42 24.7159V22.7159H290.42V24.7159H292.42ZM296.958 24.7159H298.958V22.7159H296.958V24.7159ZM297.15 40.9517L295.394 41.9094L295.4 41.9209L295.407 41.9322L297.15 40.9517ZM297.682 41.4311L296.93 43.284L296.939 43.288L296.949 43.2919L297.682 41.4311ZM299.131 41.5163L299.46 43.4891L299.492 43.4838L299.523 43.4775L299.131 41.5163ZM299.621 41.4205L301.578 41.0069L301.174 39.0945L299.253 39.4547L299.621 41.4205ZM300.335 44.7976L300.932 46.7065L302.668 46.1639L302.292 44.384L300.335 44.7976ZM299.376 45.0426L298.939 43.091L298.923 43.0946L298.907 43.0984L299.376 45.0426ZM297.874 45.2237L297.802 43.225L297.796 43.2252L297.874 45.2237ZM294.998 44.7869L294.241 46.6383L294.247 46.6406L294.998 44.7869ZM293.091 43.2315L294.77 42.1457L293.091 43.2315ZM292.42 40.5682L294.42 40.5814V40.5682H292.42ZM298.037 28.6364V32.0455H302.037V28.6364H298.037ZM300.037 30.0455H290.182V34.0455H300.037V30.0455ZM292.182 32.0455V28.6364H288.182V32.0455H292.182ZM290.182 30.6364H300.037V26.6364H290.182V30.6364ZM292.42 26.7159H296.958V22.7159H292.42V26.7159ZM294.958 24.7159V39.9716H298.958V24.7159H294.958ZM294.958 39.9716C294.958 40.5528 295.04 41.26 295.394 41.9094L298.906 39.994C298.933 40.0452 298.95 40.0862 298.958 40.1118C298.967 40.1373 298.969 40.1501 298.969 40.1469C298.968 40.1437 298.965 40.128 298.963 40.0978C298.96 40.0676 298.958 40.026 298.958 39.9716H294.958ZM295.407 41.9322C295.741 42.5273 296.256 43.0102 296.93 43.284L298.435 39.5782C298.53 39.6169 298.628 39.676 298.717 39.7554C298.804 39.8338 298.86 39.9125 298.893 39.9712L295.407 41.9322ZM296.949 43.2919C297.461 43.4935 297.988 43.5696 298.492 43.5696V39.5696C298.386 39.5696 298.373 39.5534 298.415 39.5703L296.949 43.2919ZM298.492 43.5696C298.817 43.5696 299.14 43.5425 299.46 43.4891L298.802 39.5435C298.697 39.5612 298.593 39.5696 298.492 39.5696V43.5696ZM299.523 43.4775C299.734 43.4353 299.888 43.4053 299.99 43.3862L299.253 39.4547C299.127 39.4783 298.954 39.5121 298.739 39.5552L299.523 43.4775ZM297.665 41.834L298.378 45.2112L302.292 44.384L301.578 41.0069L297.665 41.834ZM299.739 42.8886C299.589 42.9354 299.331 43.0031 298.939 43.091L299.814 46.9942C300.245 46.8975 300.627 46.8018 300.932 46.7065L299.739 42.8886ZM298.907 43.0984C298.665 43.1569 298.305 43.2068 297.802 43.225L297.946 47.2224C298.622 47.198 299.264 47.1272 299.846 46.9868L298.907 43.0984ZM297.796 43.2252C296.922 43.2593 296.256 43.1389 295.749 42.9333L294.247 46.6406C295.387 47.1026 296.639 47.2734 297.952 47.2222L297.796 43.2252ZM295.754 42.9356C295.295 42.7477 294.99 42.4862 294.77 42.1457L291.411 44.3173C292.1 45.3831 293.067 46.1585 294.241 46.6383L295.754 42.9356ZM294.77 42.1457C294.58 41.8506 294.414 41.3727 294.42 40.5814L290.42 40.5549C290.411 41.9085 290.693 43.2063 291.411 44.3173L294.77 42.1457ZM294.42 40.5682V24.7159H290.42V40.5682H294.42Z" fill="#541B68" mask="url(#path-1-outside-1_143_65)"/>
</g>
<defs>
<filter id="filter0_d_143_65" x="0.896484" y="0.935303" width="320.438" height="65.3843" filterUnits="userSpaceOnUse" color-interpolation-filters="sRGB">
<feFlood flood-opacity="0" result="BackgroundImageFix"/>
<feColorMatrix in="SourceAlpha" type="matrix" values="0 0 0 0 0 0 0 0 0 0 0 0 0 0 0 0 0 0 127 0" result="hardAlpha"/>
<feMorphology radius="11" operator="dilate" in="SourceAlpha" result="effect1_dropShadow_143_65"/>
<feOffset/>
<feGaussianBlur stdDeviation="5"/>
<feComposite in2="hardAlpha" operator="out"/>
<feColorMatrix type="matrix" values="0 0 0 0 0.247059 0 0 0 0 0.0823529 0 0 0 0 0.298039 0 0 0 1 0"/>
<feBlend mode="hard-light" in2="BackgroundImageFix" result="effect1_dropShadow_143_65"/>
<feBlend mode="normal" in="SourceGraphic" in2="effect1_dropShadow_143_65" result="shape"/>
</filter>
</defs>
</svg>
