<svg width="59" height="54" viewBox="0 0 59 54" fill="none" xmlns="http://www.w3.org/2000/svg">
<path d="M41.0237 42.4615H20.2523C18.9848 42.464 17.7518 42.0491 16.7437 41.281C15.7356 40.5128 15.0086 39.4341 14.6748 38.2115L9.61658 19.8846C9.53879 19.5994 9.52782 19.3 9.58453 19.0099C9.64123 18.7197 9.76409 18.4465 9.94354 18.2115C10.1305 17.9683 10.3729 17.7732 10.6506 17.6428C10.9284 17.5123 11.2332 17.4502 11.5399 17.4615H48.0821C48.3647 17.4611 48.6438 17.5229 48.8998 17.6425C49.1558 17.7622 49.3822 17.9368 49.563 18.1538C49.7416 18.3712 49.8703 18.625 49.9401 18.8975C50.0099 19.1699 50.019 19.4544 49.9669 19.7308L46.6974 37.7308C46.4544 39.0583 45.7536 40.2587 44.717 41.1231C43.6804 41.9875 42.3735 42.4611 41.0237 42.4615ZM14.0978 21.3077L18.4252 37.1923C18.5379 37.6118 18.7893 37.9809 19.1386 38.2393C19.4878 38.4977 19.9143 38.6302 20.3485 38.6154H41.1199C41.5753 38.6228 42.0185 38.4684 42.3707 38.1796C42.7229 37.8908 42.9612 37.4864 43.0431 37.0384L45.7742 21.3077H14.0978Z" fill="#541B68"/>
<path d="M11.5397 21.3077C11.108 21.3237 10.6835 21.1938 10.3346 20.9392C9.98571 20.6845 9.73272 20.3198 9.61638 19.9039L6.6353 9.25001C6.51897 8.83404 6.26597 8.46935 5.91708 8.21468C5.56818 7.96001 5.1437 7.8302 4.71203 7.84616H1.92328C1.41319 7.84616 0.923999 7.64355 0.563315 7.2829C0.20263 6.92226 0 6.43311 0 5.92308C0 5.41305 0.20263 4.92391 0.563315 4.56326C0.923999 4.20261 1.41319 4.00001 1.92328 4.00001H4.78896C6.04562 3.99823 7.26851 4.40673 8.27175 5.16343C9.27499 5.92012 10.0037 6.98363 10.3472 8.19231L13.4629 18.8654C13.5411 19.1179 13.5664 19.3839 13.5372 19.6466C13.5079 19.9093 13.4249 20.1632 13.2931 20.3924C13.1614 20.6216 12.9838 20.8212 12.7714 20.9786C12.5591 21.1361 12.3165 21.2481 12.0589 21.3077C11.887 21.3357 11.7116 21.3357 11.5397 21.3077Z" fill="#541B68"/>
<path d="M25.0028 53.9999C24.242 53.9999 23.4983 53.7744 22.8658 53.3517C22.2332 52.9291 21.7402 52.3284 21.4491 51.6256C21.1579 50.9228 21.0817 50.1495 21.2302 49.4034C21.3786 48.6573 21.7449 47.972 22.2829 47.4341C22.8208 46.8962 23.5062 46.5299 24.2524 46.3815C24.9985 46.2331 25.772 46.3093 26.4748 46.6004C27.1777 46.8915 27.7784 47.3845 28.2011 48.017C28.6238 48.6495 28.8494 49.3931 28.8494 50.1538C28.8494 51.1738 28.4441 52.1521 27.7227 52.8734C27.0014 53.5947 26.023 53.9999 25.0028 53.9999Z" fill="#541B68"/>
<path d="M36.5419 53.9999C35.7811 53.9999 35.0374 53.7744 34.4048 53.3517C33.7723 52.9291 33.2793 52.3284 32.9881 51.6256C32.697 50.9228 32.6208 50.1495 32.7692 49.4034C32.9176 48.6573 33.284 47.972 33.8219 47.4341C34.3599 46.8962 35.0453 46.5299 35.7914 46.3815C36.5376 46.2331 37.311 46.3093 38.0139 46.6004C38.7167 46.8915 39.3175 47.3845 39.7402 48.017C40.1628 48.6495 40.3884 49.3931 40.3884 50.1538C40.3884 51.1738 39.9832 52.1521 39.2618 52.8734C38.5404 53.5947 37.562 53.9999 36.5419 53.9999Z" fill="#541B68"/>
<path d="M36.542 30.9231H25.0024C24.4923 30.9231 24.0031 30.7204 23.6424 30.3598C23.2817 29.9992 23.0791 29.51 23.0791 29C23.0791 28.4899 23.2817 28.0008 23.6424 27.6402C24.0031 27.2795 24.4923 27.0769 25.0024 27.0769H36.542C37.0521 27.0769 37.5413 27.2795 37.902 27.6402C38.2627 28.0008 38.4653 28.4899 38.4653 29C38.4653 29.51 38.2627 29.9992 37.902 30.3598C37.5413 30.7204 37.0521 30.9231 36.542 30.9231Z" fill="#541B68"/>
<circle cx="52.5" cy="6.5" r="6" fill="#C057E4" stroke="#541B68"/>
</svg>
