<svg width="50" height="50" viewBox="0 0 50 50" fill="none" xmlns="http://www.w3.org/2000/svg">
<path d="M25 50C20.0555 50 15.222 48.5338 11.1108 45.7867C6.99952 43.0397 3.79521 39.1352 1.90302 34.5671C0.0108321 29.9989 -0.484251 24.9723 0.480379 20.1227C1.44501 15.2732 3.82603 10.8187 7.32234 7.32234C10.8187 3.82603 15.2732 1.44501 20.1227 0.480379C24.9723 -0.484251 29.9989 0.0108321 34.5671 1.90302C39.1352 3.79521 43.0397 6.99952 45.7867 11.1108C48.5338 15.222 50 20.0555 50 25C50 31.6304 47.3661 37.9893 42.6777 42.6777C37.9893 47.3661 31.6304 50 25 50ZM25 3.84616C20.8162 3.84616 16.7263 5.08681 13.2476 7.41123C9.76883 9.73564 7.05749 13.0394 5.4564 16.9048C3.85532 20.7701 3.4364 25.0235 4.25263 29.1269C5.06885 33.2304 7.08356 36.9996 10.042 39.958C13.0004 42.9165 16.7697 44.9312 20.8731 45.7474C24.9765 46.5636 29.2299 46.1447 33.0952 44.5436C36.9606 42.9425 40.2644 40.2312 42.5888 36.7524C44.9132 33.2737 46.1538 29.1838 46.1538 25C46.1538 19.3897 43.9251 14.0091 39.958 10.042C35.9909 6.07487 30.6104 3.84616 25 3.84616Z" fill="#541B68"/>
<path d="M25.0002 26.9232C23.0984 26.9232 21.2394 26.3592 19.6581 25.3027C18.0769 24.2461 16.8445 22.7444 16.1167 20.9874C15.3889 19.2304 15.1985 17.2971 15.5695 15.4319C15.9405 13.5667 16.8563 11.8534 18.2011 10.5087C19.5458 9.16393 21.2591 8.24816 23.1243 7.87714C24.9895 7.50613 26.9228 7.69655 28.6798 8.42431C30.4368 9.15208 31.9385 10.3845 32.9951 11.9657C34.0516 13.547 34.6155 15.406 34.6155 17.3078C34.6155 19.8579 33.6025 22.3036 31.7993 24.1069C29.996 25.9101 27.5503 26.9232 25.0002 26.9232ZM25.0002 11.5385C23.8591 11.5385 22.7437 11.8769 21.7949 12.5108C20.8462 13.1448 20.1067 14.0458 19.6701 15.1C19.2334 16.1542 19.1192 17.3142 19.3418 18.4333C19.5644 19.5524 20.1139 20.5804 20.9207 21.3872C21.7275 22.1941 22.7555 22.7435 23.8746 22.9661C24.9938 23.1888 26.1538 23.0745 27.2079 22.6378C28.2621 22.2012 29.1632 21.4617 29.7971 20.513C30.431 19.5642 30.7694 18.4488 30.7694 17.3078C30.7694 15.7777 30.1616 14.3102 29.0796 13.2283C27.9977 12.1464 26.5302 11.5385 25.0002 11.5385Z" fill="#541B68"/>
<path d="M43.3652 40.3847C43.0983 40.3865 42.834 40.3327 42.5889 40.2268C42.3439 40.1208 42.1237 39.965 41.9422 39.7693C39.901 37.5428 37.4199 35.7642 34.6558 34.5461C31.8918 33.3279 28.905 32.6967 25.8845 32.6924H24.1153C18.4849 32.6803 13.0708 34.8597 9.0191 38.7693C8.64475 39.0782 8.16744 39.2342 7.68293 39.2058C7.19841 39.1775 6.74252 38.967 6.40671 38.6166C6.0709 38.2662 5.88 37.8018 5.87231 37.3165C5.86462 36.8312 6.04071 36.361 6.36526 36.0001C11.1266 31.3981 17.4934 28.832 24.1153 28.8463H25.8845C29.4349 28.8543 32.9453 29.5964 36.1952 31.0261C39.445 32.4558 42.3641 34.5421 44.7691 37.1539C45.0232 37.4279 45.192 37.77 45.2548 38.1383C45.3176 38.5067 45.2718 38.8853 45.1228 39.228C44.9739 39.5707 44.7284 39.8626 44.4163 40.0681C44.1041 40.2735 43.7389 40.3835 43.3652 40.3847Z" fill="#541B68"/>
</svg>
